# xmcd
#
# Track frame offsets:
#  150
#  12930
#  26420
#  37411
#  47155
#  61461
#  76422
#  89159
#  99851
#  113285
#
# Disc length: 1683 seconds
#
# Revision: 0
# Processed by: cddbd v1.4PL0 Copyright (c) Steve Scherf et al.
# Submitted via: AltoMP3_Maker 3.0
#
DISCID=7806910a
DTITLE=Elvis Presley - Promised land
DYEAR=1900
DGENRE=
TTITLE0=Promised Land
TTITLE1=There's A Honky Tonk Angel (Who Will Take Me Back In)
TTITLE2=Help Me
TTITLE3=Mr. Songman
TTITLE4=Love Song Of The Year
TTITLE5=It's Midnight
TTITLE6=Your Love's Been A Long Time Coming
TTITLE7=If You Talk In Your Sleep
TTITLE8=Thinking About You
TTITLE9=You Asked Me To
EXTD=
EXTT0=
EXTT1=
EXTT2=
EXTT3=
EXTT4=
EXTT5=
EXTT6=
EXTT7=
EXTT8=
EXTT9=
PLAYORDER=
